<svg width="295" height="340" viewBox="0 0 295 340" fill="none" xmlns="http://www.w3.org/2000/svg">
<path d="M202.848 143.554L181.185 156.084L201.438 174.015L211.884 152.59L202.848 143.554Z" fill="#FFCE56"/>
<path d="M201.437 176.474C200.841 176.474 200.26 176.259 199.807 175.857L179.554 157.926C178.963 157.403 178.657 156.626 178.737 155.839C178.816 155.051 179.268 154.352 179.952 153.957L201.615 141.425C202.575 140.869 203.798 141.028 204.586 141.816L213.622 150.853C214.365 151.594 214.555 152.725 214.093 153.67L203.647 175.094C203.311 175.785 202.672 176.279 201.918 176.428C201.756 176.459 201.596 176.474 201.437 176.474ZM185.369 156.505L200.644 170.03L208.906 153.088L202.444 146.627L185.369 156.505Z" fill="#4C241D"/>
<path d="M221.572 132.724L202.848 143.554L211.884 152.59L221.572 132.724Z" fill="#6B4F5B"/>
<path d="M211.883 155.05C211.237 155.05 210.611 154.794 210.145 154.329L201.109 145.293C200.568 144.753 200.308 143.992 200.409 143.233C200.508 142.476 200.954 141.809 201.615 141.425L220.341 130.595C221.279 130.054 222.459 130.185 223.249 130.925C224.042 131.663 224.258 132.83 223.783 133.803L214.092 153.67C213.744 154.384 213.072 154.885 212.288 155.016C212.154 155.04 212.018 155.05 211.883 155.05ZM206.85 144.08L211.185 148.415L215.833 138.885L206.85 144.08Z" fill="#4C241D"/>
<path d="M116.461 143.554L138.124 156.084L117.871 174.015L107.425 152.59L116.461 143.554Z" fill="#FFCE56"/>
<path d="M117.872 176.474C117.713 176.474 117.552 176.459 117.391 176.428C116.637 176.279 115.998 175.785 115.663 175.094L105.216 153.67C104.755 152.725 104.945 151.594 105.687 150.853L114.723 141.816C115.511 141.028 116.731 140.869 117.694 141.425L139.357 153.957C140.041 154.353 140.493 155.053 140.573 155.839C140.652 156.624 140.346 157.403 139.757 157.926L119.503 175.857C119.049 176.259 118.468 176.474 117.872 176.474ZM110.404 153.09L118.665 170.031L133.94 156.506L116.866 146.628L110.404 153.09Z" fill="#4C241D"/>
<path d="M97.7368 132.724L116.461 143.554L107.425 152.59L97.7368 132.724Z" fill="#6B4F5B"/>
<path d="M107.426 155.05C107.291 155.05 107.154 155.039 107.019 155.016C106.237 154.885 105.564 154.384 105.215 153.669L95.5262 133.803C95.052 132.83 95.2673 131.663 96.0595 130.925C96.8503 130.185 98.0309 130.053 98.968 130.595L117.694 141.425C118.355 141.809 118.801 142.476 118.899 143.233C119.001 143.992 118.74 144.753 118.2 145.293L109.164 154.329C108.698 154.794 108.072 155.05 107.426 155.05ZM103.478 138.885L108.124 148.415L112.459 144.08L103.478 138.885Z" fill="#4C241D"/>
<path d="M121.853 231.325C117.018 225.755 113.306 219.056 111.175 211.484C103.448 184.03 119.441 155.511 146.895 147.785C174.347 140.057 202.868 156.05 210.594 183.504C218.322 210.958 202.329 239.477 174.875 247.203C162.294 250.745 149.49 249.304 138.564 244.062" fill="#FFCE56"/>
<path d="M160.874 251.597C152.841 251.597 144.853 249.809 137.498 246.281C136.274 245.693 135.758 244.224 136.346 242.999C136.931 241.777 138.399 241.257 139.626 241.845C150.404 247.017 162.682 248.083 174.209 244.838C200.311 237.49 215.572 210.274 208.226 184.17C200.879 158.061 173.659 142.812 147.558 150.15C121.457 157.498 106.196 184.714 113.541 210.819C115.528 217.874 118.95 224.231 123.709 229.713C124.601 230.739 124.49 232.292 123.465 233.181C122.444 234.072 120.886 233.964 119.997 232.938C114.757 226.904 110.992 219.911 108.806 212.152C100.725 183.435 117.513 153.499 146.228 145.418C174.934 137.342 204.878 154.123 212.962 182.837C221.043 211.554 204.254 241.49 175.54 249.571C170.728 250.926 165.792 251.597 160.874 251.597V251.597Z" fill="#4C241D"/>
<path d="M131.408 242.36C130.924 242.36 130.436 242.218 130.007 241.919C128.493 240.868 127.027 239.734 125.648 238.552C124.618 237.669 124.5 236.115 125.383 235.085C126.267 234.052 127.816 233.938 128.852 234.818C130.103 235.893 131.438 236.923 132.816 237.882C133.93 238.656 134.207 240.19 133.43 241.303C132.952 241.991 132.187 242.36 131.408 242.36Z" fill="#4C241D"/>
<path d="M191.873 201.923C190.513 201.923 189.413 200.821 189.413 199.463C189.413 197.291 187.646 195.525 185.475 195.525C183.303 195.525 181.536 197.291 181.536 199.463C181.536 200.821 180.437 201.923 179.078 201.923C177.719 201.923 176.618 200.821 176.618 199.463C176.618 194.581 180.591 190.607 185.475 190.607C190.359 190.607 194.331 194.581 194.331 199.463C194.331 200.821 193.232 201.923 191.873 201.923V201.923Z" fill="#4C241D"/>
<path d="M140.231 201.923C138.872 201.923 137.773 200.821 137.773 199.463C137.773 197.291 136.005 195.525 133.834 195.525C131.663 195.525 129.896 197.291 129.896 199.463C129.896 200.821 128.795 201.923 127.436 201.923C126.077 201.923 124.978 200.821 124.978 199.463C124.978 194.581 128.95 190.607 133.834 190.607C138.718 190.607 142.69 194.581 142.69 199.463C142.69 200.821 141.59 201.923 140.231 201.923Z" fill="#4C241D"/>
<path d="M206.902 218.396C206.902 222.76 203.364 226.298 199 226.298C194.635 226.298 191.097 222.76 191.097 218.396C191.097 214.032 194.635 210.493 199 210.493C203.364 210.493 206.902 214.032 206.902 218.396Z" fill="#E66353"/>
<path d="M199 228.758C193.287 228.758 188.638 224.11 188.638 218.396C188.638 212.683 193.287 208.035 199 208.035C204.712 208.035 209.361 212.683 209.361 218.396C209.361 224.11 204.712 228.758 199 228.758ZM199 212.953C195.998 212.953 193.555 215.394 193.555 218.397C193.555 221.398 195.998 223.84 199 223.84C202.001 223.84 204.444 221.398 204.444 218.397C204.444 215.394 202.001 212.953 199 212.953V212.953Z" fill="#4C241D"/>
<path d="M130.671 218.396C130.671 222.76 127.132 226.298 122.769 226.298C118.404 226.298 114.867 222.76 114.867 218.396C114.867 214.032 118.404 210.493 122.769 210.493C127.132 210.493 130.671 214.032 130.671 218.396Z" fill="#E66353"/>
<path d="M122.769 228.758C117.055 228.758 112.407 224.11 112.407 218.396C112.407 212.683 117.055 208.035 122.769 208.035C128.482 208.035 133.131 212.683 133.131 218.396C133.131 224.11 128.482 228.758 122.769 228.758ZM122.769 212.953C119.766 212.953 117.325 215.394 117.325 218.397C117.325 221.398 119.768 223.84 122.769 223.84C125.77 223.84 128.212 221.398 128.212 218.397C128.212 215.394 125.77 212.953 122.769 212.953Z" fill="#4C241D"/>
<path d="M169.69 217.636C165.307 217.636 161.775 215.708 159.519 213.737C151.401 220.231 143.669 216.498 143.32 216.324C142.104 215.718 141.613 214.241 142.219 213.026C142.824 211.818 144.289 211.324 145.502 211.917C145.8 212.058 151.747 214.747 157.915 208.578C158.419 208.072 159.099 207.817 159.829 207.864C160.54 207.914 161.194 208.27 161.62 208.842C161.803 209.078 166.392 214.884 173.976 211.841C175.225 211.341 176.668 211.951 177.173 213.212C177.677 214.474 177.062 215.904 175.801 216.409C173.631 217.277 171.582 217.636 169.69 217.636V217.636Z" fill="#4C241D"/>
<path d="M159.655 210.316C154.568 215.404 149.493 215.392 146.676 214.824C147.5 220.139 149.559 229.074 153.185 235.586C155.857 240.386 162.685 240.487 165.602 235.831C168.409 231.348 171.17 224.545 171.245 215.078C163.932 215.998 159.655 210.316 159.655 210.316V210.316Z" fill="#E66353"/>
<path d="M159.441 241.715C159.353 241.715 159.267 241.714 159.182 241.713C155.75 241.623 152.706 239.781 151.036 236.782C146.612 228.836 144.72 218.255 144.244 215.202C144.122 214.407 144.393 213.602 144.974 213.046C145.553 212.49 146.37 212.252 147.159 212.413C149.792 212.94 153.79 212.703 157.915 208.578C158.42 208.072 159.114 207.817 159.827 207.864C160.532 207.913 161.181 208.265 161.612 208.826C161.769 209.033 165.191 213.358 170.936 212.636C171.657 212.544 172.348 212.767 172.877 213.237C173.407 213.709 173.707 214.385 173.703 215.095C173.64 223.329 171.561 230.95 167.688 237.135C165.881 240.017 162.815 241.715 159.441 241.715V241.715ZM149.653 217.522C150.743 222.99 152.66 229.589 155.335 234.39C156.161 235.875 157.609 236.751 159.308 236.795C160.949 236.809 162.599 235.991 163.518 234.525C166.559 229.672 168.295 223.992 168.696 217.608C164.479 217.34 161.363 215.306 159.542 213.716C155.954 216.579 152.429 217.437 149.653 217.522V217.522Z" fill="#4C241D"/>
<path d="M160.942 335.976C208.08 335.976 246.295 297.426 246.295 249.877H75.5879C75.5879 297.426 113.8 335.976 160.942 335.976V335.976Z" fill="white"/>
<path d="M160.939 339.958C111.681 339.958 71.6057 299.548 71.6057 249.877C71.6057 247.675 73.3882 245.893 75.5879 245.893H246.293C248.495 245.893 250.278 247.675 250.278 249.877C250.278 299.548 210.2 339.958 160.939 339.958V339.958ZM79.6681 253.859C81.731 297.294 117.397 331.99 160.939 331.99C204.486 331.99 240.152 297.294 242.215 253.859H79.6681Z" fill="#4D1717"/>
<path d="M207.868 179.315C206.453 178.38 205.008 177.489 203.533 176.639Z" fill="#F53E28"/>
<path d="M188.206 250.623C188.206 265.681 176 277.887 160.942 277.887C145.884 277.887 133.677 265.681 133.677 250.623C133.677 235.565 145.884 223.358 160.942 223.358C176 223.358 188.206 235.565 188.206 250.623V250.623Z" fill="#EDEBDC"/>
<path d="M160.939 281.871C143.709 281.871 129.693 267.853 129.693 250.623C129.693 233.39 143.709 219.371 160.939 219.371C178.172 219.371 192.191 233.39 192.191 250.623C192.191 267.853 178.172 281.871 160.939 281.871V281.871ZM160.939 227.34C148.102 227.34 137.66 237.785 137.66 250.623C137.66 263.46 148.102 273.905 160.939 273.905C173.78 273.905 184.224 263.46 184.224 250.623C184.224 237.785 173.78 227.34 160.939 227.34V227.34Z" fill="#4D1717"/>
<path d="M172.811 250.623C172.811 257.178 167.497 262.492 160.942 262.492C154.386 262.492 149.073 257.178 149.073 250.623C149.073 244.067 154.386 238.754 160.942 238.754C167.497 238.754 172.811 244.067 172.811 250.623V250.623Z" fill="#EDEBDC"/>
<path d="M157.656 46.3806C147.915 45.7128 137.884 46.706 127.945 49.5708C82.6478 62.6266 56.4208 109.608 69.3623 154.508L233.392 107.231C226.646 83.8255 210.587 65.6049 190.345 55.3745" fill="#F53E28"/>
<path d="M234.493 111.058L70.4651 158.335C68.3515 158.944 66.1444 157.723 65.5352 155.609C52.006 108.669 79.5073 59.3851 126.839 45.7429C137.015 42.8099 147.476 41.6879 157.93 42.4088C160.124 42.559 161.781 44.4611 161.63 46.656C161.482 48.8503 159.582 50.5107 157.383 50.3545C147.858 49.7028 138.326 50.7253 129.046 53.4001C87.2294 65.4527 62.399 108.02 72.1815 149.549L228.368 104.532C221.581 84.6379 207.561 68.5386 188.546 58.9293C186.583 57.9366 185.798 55.5416 186.79 53.5761C187.78 51.6135 190.181 50.8242 192.141 51.8204C214.029 62.8811 230.462 82.6761 237.221 106.127C237.827 108.239 236.609 110.448 234.493 111.058Z" fill="#4D1717"/>
<path d="M178.025 53.8987C177.302 54.107 176.512 54.1141 175.74 53.8739C174.195 53.3919 172.635 52.954 171.063 52.5675C168.929 52.0367 167.626 49.8765 168.153 47.7412C168.684 45.6052 170.837 44.3036 172.98 44.8319C174.707 45.2615 176.418 45.7388 178.112 46.2681C180.213 46.9223 181.383 49.1564 180.731 51.2542C180.314 52.5839 179.269 53.5401 178.025 53.8987V53.8987Z" fill="#4D1717"/>
<path d="M14.3812 211.764C6.4523 211.764 0 205.312 0 197.383C0 189.452 6.4523 183 14.3812 183C22.3121 183 28.7644 189.452 28.7644 197.383C28.7644 205.312 22.3121 211.764 14.3812 211.764ZM14.3812 190.228C10.4374 190.228 7.22781 193.439 7.22781 197.383C7.22781 201.327 10.4374 204.537 14.3812 204.537C18.3249 204.537 21.5366 201.327 21.5366 197.383C21.5366 193.439 18.3249 190.228 14.3812 190.228Z" fill="#4D1717"/>
<path d="M272.685 87.0706C270.69 87.0706 269.071 85.4513 269.071 83.4556V72.6129C269.071 70.6172 270.69 69 272.685 69C274.681 69 276.298 70.6172 276.298 72.6129V83.4556C276.298 85.4513 274.681 87.0706 272.685 87.0706Z" fill="#4D1717"/>
<path d="M272.685 112.369C270.69 112.369 269.071 110.752 269.071 108.756V97.9133C269.071 95.9176 270.69 94.2983 272.685 94.2983C274.681 94.2983 276.298 95.9176 276.298 97.9133V108.756C276.298 110.752 274.681 112.369 272.685 112.369Z" fill="#4D1717"/>
<path d="M265.458 94.2984H254.615C252.619 94.2984 251 92.6812 251 90.6855C251 88.6878 252.619 87.0706 254.615 87.0706H265.458C267.453 87.0706 269.071 88.6878 269.071 90.6855C269.071 92.6812 267.453 94.2984 265.458 94.2984Z" fill="#4D1717"/>
<path d="M290.756 94.2984H279.913C277.918 94.2984 276.298 92.6812 276.298 90.6855C276.298 88.6878 277.918 87.0706 279.913 87.0706H290.756C292.752 87.0706 294.371 88.6878 294.371 90.6855C294.371 92.6812 292.752 94.2984 290.756 94.2984V94.2984Z" fill="#4D1717"/>
<path d="M206.139 22.3039C204.329 22.3039 202.536 21.8592 200.894 20.9803C198.27 19.5761 196.346 17.233 195.484 14.3833C194.622 11.5335 194.917 8.51831 196.324 5.8919C197.728 3.26755 200.071 1.34427 202.921 0.481898C208.796 -1.30489 215.037 2.03293 216.822 7.91651C218.605 13.8001 215.269 20.0352 209.388 21.82C208.318 22.1446 207.224 22.3039 206.139 22.3039ZM206.151 7.22992C205.775 7.22992 205.394 7.28576 205.016 7.3995C204.015 7.7035 203.192 8.37975 202.697 9.3021C202.203 10.2244 202.1 11.2854 202.404 12.2884C202.706 13.2914 203.382 14.1124 204.304 14.6066C205.227 15.0988 206.292 15.2064 207.291 14.9003C209.359 14.2757 210.531 12.0815 209.905 10.0135C209.39 8.32185 207.832 7.22992 206.151 7.22992Z" fill="#4D1717"/>
<path d="M256.147 200.296C250.001 200.296 245 195.295 245 189.149C245 183.003 250.001 178 256.147 178C262.293 178 267.296 183.003 267.296 189.149C267.296 195.295 262.293 200.296 256.147 200.296ZM256.147 185.23C253.986 185.23 252.228 186.986 252.228 189.149C252.228 191.31 253.986 193.068 256.147 193.068C258.31 193.068 260.066 191.31 260.066 189.149C260.066 186.986 258.308 185.23 256.147 185.23Z" fill="#4D1717"/>
<path d="M35.6154 111.883C34.691 111.883 33.7645 111.53 33.0593 110.825C31.6489 109.412 31.6489 107.125 33.0593 105.714L43.7138 95.0578C45.1263 93.6474 47.4135 93.6474 48.826 95.0578C50.2364 96.4703 50.2364 98.7575 48.826 100.168L38.1694 110.825C37.4621 111.53 36.5398 111.883 35.6154 111.883Z" fill="#4D1717"/>
<path d="M46.27 111.883C45.3456 111.883 44.4212 111.53 43.7139 110.825L33.0594 100.168C31.6469 98.7575 31.6469 96.4703 33.0594 95.0578C34.4698 93.6474 36.757 93.6474 38.1695 95.0578L48.824 105.714C50.2365 107.125 50.2365 109.412 48.824 110.825C48.1188 111.53 47.1944 111.883 46.27 111.883Z" fill="#4D1717"/>
<path d="M84.0546 32.0263C84.0546 35.3558 81.3558 38.0546 78.0263 38.0546C74.6988 38.0546 72 35.3558 72 32.0263C72 28.6988 74.6988 26 78.0263 26C81.3558 26 84.0546 28.6988 84.0546 32.0263Z" fill="#4D1717"/>
<path d="M289.172 147.954C289.172 151.283 286.475 153.982 283.146 153.982C279.816 153.982 277.117 151.283 277.117 147.954C277.117 144.626 279.816 141.927 283.146 141.927C286.475 141.927 289.172 144.626 289.172 147.954Z" fill="#4D1717"/>
</svg>
