<svg width="294" height="343" viewBox="0 0 294 343" fill="none" xmlns="http://www.w3.org/2000/svg">
<path d="M187.848 146.554L166.185 159.084L186.438 177.015L196.884 155.59L187.848 146.554Z" fill="#FFCE56"/>
<path d="M186.437 179.474C185.841 179.474 185.26 179.259 184.807 178.857L164.554 160.926C163.963 160.403 163.657 159.626 163.737 158.839C163.816 158.051 164.268 157.352 164.952 156.957L186.615 144.425C187.575 143.869 188.798 144.028 189.586 144.816L198.622 153.853C199.365 154.594 199.555 155.725 199.093 156.67L188.647 178.094C188.311 178.785 187.672 179.279 186.918 179.428C186.756 179.459 186.596 179.474 186.437 179.474ZM170.369 159.505L185.644 173.03L193.906 156.088L187.444 149.627L170.369 159.505Z" fill="#4C241D"/>
<path d="M206.572 135.724L187.848 146.554L196.884 155.59L206.572 135.724Z" fill="#6B4F5B"/>
<path d="M196.883 158.05C196.237 158.05 195.611 157.794 195.145 157.329L186.109 148.293C185.568 147.753 185.308 146.992 185.409 146.233C185.508 145.476 185.954 144.809 186.615 144.425L205.341 133.595C206.279 133.054 207.459 133.185 208.249 133.925C209.042 134.663 209.258 135.83 208.783 136.803L199.092 156.67C198.744 157.384 198.072 157.885 197.288 158.016C197.154 158.04 197.018 158.05 196.883 158.05ZM191.85 147.08L196.185 151.415L200.833 141.885L191.85 147.08Z" fill="#4C241D"/>
<path d="M101.461 146.554L123.124 159.084L102.871 177.015L92.4246 155.59L101.461 146.554Z" fill="#FFCE56"/>
<path d="M102.872 179.474C102.713 179.474 102.552 179.459 102.391 179.428C101.637 179.279 100.998 178.785 100.663 178.094L90.2156 156.67C89.7555 155.725 89.9454 154.594 90.687 153.853L99.7233 144.816C100.511 144.028 101.731 143.869 102.694 144.425L124.357 156.957C125.041 157.353 125.493 158.053 125.573 158.839C125.652 159.624 125.346 160.403 124.757 160.926L104.503 178.857C104.049 179.259 103.468 179.474 102.872 179.474ZM95.4035 156.09L103.665 173.031L118.94 159.506L101.866 149.628L95.4035 156.09Z" fill="#4C241D"/>
<path d="M82.7368 135.724L101.461 146.554L92.4246 155.59L82.7368 135.724Z" fill="#6B4F5B"/>
<path d="M92.426 158.05C92.2909 158.05 92.1544 158.039 92.0194 158.016C91.237 157.885 90.5644 157.384 90.2155 156.669L80.5262 136.803C80.052 135.83 80.2673 134.663 81.0595 133.925C81.8503 133.185 83.0309 133.053 83.968 133.595L102.694 144.425C103.355 144.809 103.801 145.476 103.899 146.233C104.001 146.992 103.74 147.753 103.2 148.293L94.1638 157.329C93.698 157.794 93.0719 158.05 92.426 158.05ZM88.4777 141.885L93.1239 151.415L97.4592 147.08L88.4777 141.885Z" fill="#4C241D"/>
<path d="M106.853 234.325C102.018 228.755 98.3064 222.056 96.1747 214.484C88.4483 187.03 104.441 158.511 131.895 150.785C159.347 143.057 187.868 159.05 195.594 186.504C203.322 213.958 187.329 242.477 159.875 250.203C147.294 253.745 134.49 252.304 123.564 247.062" fill="#FFCE56"/>
<path d="M145.874 254.597C137.841 254.597 129.853 252.809 122.498 249.281C121.274 248.693 120.758 247.224 121.346 245.999C121.931 244.777 123.399 244.257 124.626 244.845C135.404 250.017 147.682 251.083 159.209 247.838C185.311 240.49 200.572 213.274 193.226 187.17C185.879 161.061 158.659 145.812 132.558 153.15C106.457 160.498 91.1962 187.714 98.5412 213.819C100.528 220.874 103.95 227.231 108.709 232.713C109.601 233.739 109.49 235.292 108.465 236.181C107.444 237.072 105.886 236.964 104.997 235.938C99.7569 229.904 95.9915 222.911 93.8063 215.152C85.7254 186.435 102.513 156.499 131.228 148.418C159.934 140.342 189.878 157.123 197.962 185.837C206.043 214.554 189.254 244.49 160.54 252.571C155.728 253.926 150.792 254.597 145.874 254.597Z" fill="#4C241D"/>
<path d="M116.408 245.36C115.924 245.36 115.436 245.218 115.007 244.919C113.493 243.868 112.027 242.734 110.648 241.552C109.618 240.669 109.5 239.115 110.383 238.085C111.267 237.052 112.816 236.938 113.852 237.818C115.103 238.893 116.438 239.923 117.816 240.882C118.93 241.656 119.207 243.19 118.43 244.303C117.952 244.991 117.187 245.36 116.408 245.36Z" fill="#4C241D"/>
<path d="M176.873 204.923C175.513 204.923 174.413 203.821 174.413 202.463C174.413 200.291 172.646 198.525 170.475 198.525C168.303 198.525 166.536 200.291 166.536 202.463C166.536 203.821 165.437 204.923 164.078 204.923C162.719 204.923 161.618 203.821 161.618 202.463C161.618 197.581 165.591 193.607 170.475 193.607C175.359 193.607 179.331 197.581 179.331 202.463C179.331 203.821 178.232 204.923 176.873 204.923Z" fill="#4C241D"/>
<path d="M125.231 204.923C123.872 204.923 122.773 203.821 122.773 202.463C122.773 200.291 121.005 198.525 118.834 198.525C116.663 198.525 114.896 200.291 114.896 202.463C114.896 203.821 113.795 204.923 112.436 204.923C111.077 204.923 109.978 203.821 109.978 202.463C109.978 197.581 113.95 193.607 118.834 193.607C123.718 193.607 127.69 197.581 127.69 202.463C127.69 203.821 126.59 204.923 125.231 204.923Z" fill="#4C241D"/>
<path d="M191.902 221.396C191.902 225.76 188.364 229.298 184 229.298C179.635 229.298 176.097 225.76 176.097 221.396C176.097 217.032 179.635 213.493 184 213.493C188.364 213.493 191.902 217.032 191.902 221.396Z" fill="#E66353"/>
<path d="M184 231.758C178.287 231.758 173.638 227.11 173.638 221.396C173.638 215.683 178.287 211.035 184 211.035C189.712 211.035 194.361 215.683 194.361 221.396C194.361 227.11 189.712 231.758 184 231.758ZM184 215.953C180.998 215.953 178.555 218.394 178.555 221.397C178.555 224.398 180.998 226.84 184 226.84C187.001 226.84 189.444 224.398 189.444 221.397C189.444 218.394 187.001 215.953 184 215.953Z" fill="#4C241D"/>
<path d="M115.671 221.396C115.671 225.76 112.132 229.298 107.769 229.298C103.404 229.298 99.8667 225.76 99.8667 221.396C99.8667 217.032 103.404 213.493 107.769 213.493C112.132 213.493 115.671 217.032 115.671 221.396Z" fill="#E66353"/>
<path d="M107.769 231.758C102.055 231.758 97.4072 227.11 97.4072 221.396C97.4072 215.683 102.055 211.035 107.769 211.035C113.482 211.035 118.131 215.683 118.131 221.396C118.131 227.11 113.482 231.758 107.769 231.758ZM107.769 215.953C104.766 215.953 102.325 218.394 102.325 221.397C102.325 224.398 104.768 226.84 107.769 226.84C110.77 226.84 113.212 224.398 113.212 221.397C113.212 218.394 110.77 215.953 107.769 215.953Z" fill="#4C241D"/>
<path d="M154.69 220.636C150.307 220.636 146.775 218.708 144.519 216.737C136.401 223.231 128.669 219.498 128.32 219.324C127.104 218.718 126.613 217.241 127.219 216.026C127.824 214.818 129.289 214.324 130.502 214.917C130.8 215.058 136.747 217.747 142.915 211.578C143.419 211.072 144.099 210.817 144.829 210.864C145.54 210.914 146.194 211.27 146.62 211.842C146.803 212.078 151.392 217.884 158.976 214.841C160.225 214.341 161.668 214.951 162.173 216.212C162.677 217.474 162.062 218.904 160.801 219.409C158.631 220.277 156.582 220.636 154.69 220.636Z" fill="#4C241D"/>
<path d="M144.655 213.316C139.568 218.404 134.493 218.392 131.676 217.824C132.5 223.139 134.559 232.074 138.185 238.586C140.857 243.386 147.685 243.487 150.602 238.831C153.409 234.348 156.17 227.545 156.245 218.078C148.932 218.998 144.655 213.316 144.655 213.316Z" fill="#E66353"/>
<path d="M144.441 244.715C144.353 244.715 144.267 244.714 144.182 244.713C140.75 244.623 137.706 242.781 136.036 239.782C131.612 231.836 129.72 221.255 129.244 218.202C129.122 217.407 129.393 216.602 129.974 216.046C130.553 215.49 131.37 215.252 132.159 215.413C134.792 215.94 138.79 215.703 142.915 211.578C143.42 211.072 144.114 210.817 144.827 210.864C145.532 210.913 146.181 211.265 146.612 211.826C146.769 212.033 150.191 216.358 155.936 215.636C156.657 215.544 157.348 215.767 157.877 216.237C158.407 216.709 158.707 217.385 158.703 218.095C158.64 226.329 156.561 233.95 152.688 240.135C150.881 243.017 147.815 244.715 144.441 244.715ZM134.653 220.522C135.743 225.99 137.66 232.589 140.335 237.39C141.161 238.875 142.609 239.751 144.308 239.795C145.949 239.809 147.599 238.991 148.518 237.525C151.559 232.672 153.295 226.992 153.696 220.608C149.479 220.34 146.363 218.306 144.542 216.716C140.954 219.579 137.429 220.437 134.653 220.522Z" fill="#4C241D"/>
<path d="M145.942 338.976C193.081 338.976 231.295 300.426 231.295 252.877H60.5879C60.5879 300.426 98.8005 338.976 145.942 338.976Z" fill="white"/>
<path d="M145.939 342.958C96.6806 342.958 56.6057 302.548 56.6057 252.877C56.6057 250.675 58.3882 248.893 60.5879 248.893H231.293C233.495 248.893 235.278 250.675 235.278 252.877C235.278 302.548 195.2 342.958 145.939 342.958ZM64.6681 256.859C66.731 300.294 102.397 334.99 145.939 334.99C189.486 334.99 225.152 300.294 227.215 256.859H64.6681Z" fill="#4D1717"/>
<path d="M192.868 182.315C191.453 181.38 190.008 180.489 188.533 179.639L192.868 182.315Z" fill="#F53E28"/>
<path d="M173.206 253.623C173.206 268.681 161 280.887 145.942 280.887C130.884 280.887 118.677 268.681 118.677 253.623C118.677 238.565 130.884 226.358 145.942 226.358C161 226.358 173.206 238.565 173.206 253.623Z" fill="#EDEBDC"/>
<path d="M145.939 284.871C128.709 284.871 114.693 270.853 114.693 253.623C114.693 236.39 128.709 222.371 145.939 222.371C163.172 222.371 177.191 236.39 177.191 253.623C177.191 270.853 163.172 284.871 145.939 284.871ZM145.939 230.34C133.102 230.34 122.66 240.785 122.66 253.623C122.66 266.46 133.102 276.905 145.939 276.905C158.78 276.905 169.224 266.46 169.224 253.623C169.224 240.785 158.78 230.34 145.939 230.34Z" fill="#4D1717"/>
<path d="M157.811 253.623C157.811 260.178 152.497 265.492 145.942 265.492C139.386 265.492 134.073 260.178 134.073 253.623C134.073 247.067 139.386 241.754 145.942 241.754C152.497 241.754 157.811 247.067 157.811 253.623Z" fill="#EDEBDC"/>
<path d="M142.656 49.3806C132.915 48.7128 122.884 49.706 112.945 52.5708C67.6478 65.6266 41.4208 112.608 54.3623 157.508L218.392 110.231C211.646 86.8255 195.587 68.6049 175.345 58.3745" fill="#F53E28"/>
<path d="M219.493 114.058L55.4651 161.335C53.3515 161.944 51.1444 160.723 50.5352 158.609C37.006 111.669 64.5073 62.3851 111.839 48.7429C122.015 45.8099 132.476 44.6879 142.93 45.4088C145.124 45.559 146.781 47.4611 146.63 49.656C146.482 51.8503 144.582 53.5107 142.383 53.3545C132.858 52.7028 123.326 53.7253 114.046 56.4001C72.2294 68.4527 47.399 111.02 57.1815 152.549L213.368 107.532C206.581 87.6379 192.561 71.5386 173.546 61.9293C171.583 60.9366 170.798 58.5416 171.79 56.5761C172.78 54.6135 175.181 53.8242 177.141 54.8204C199.029 65.8811 215.462 85.6761 222.221 109.127C222.827 111.239 221.609 113.448 219.493 114.058Z" fill="#4D1717"/>
<path d="M162.936 56.3324C162.213 56.5407 161.423 56.5479 160.651 56.3076C159.105 55.8256 157.546 55.3877 155.974 55.0012C153.84 54.4705 152.536 52.3102 153.064 50.1749C153.595 48.0389 155.748 46.7373 157.891 47.2656C159.618 47.6952 161.329 48.1725 163.023 48.7018C165.124 49.356 166.294 51.5901 165.642 53.6879C165.225 55.0177 164.18 55.9738 162.936 56.3324Z" fill="#4D1717"/>
<path d="M14.3812 211.764C6.4523 211.764 0 205.312 0 197.383C0 189.452 6.4523 183 14.3812 183C22.3121 183 28.7644 189.452 28.7644 197.383C28.7644 205.312 22.3121 211.764 14.3812 211.764ZM14.3812 190.228C10.4374 190.228 7.22781 193.439 7.22781 197.383C7.22781 201.327 10.4374 204.537 14.3812 204.537C18.3249 204.537 21.5366 201.327 21.5366 197.383C21.5366 193.439 18.3249 190.228 14.3812 190.228Z" fill="#4D1717"/>
<path d="M272.685 87.0706C270.69 87.0706 269.071 85.4513 269.071 83.4556V72.6129C269.071 70.6172 270.69 69 272.685 69C274.681 69 276.298 70.6172 276.298 72.6129V83.4556C276.298 85.4513 274.681 87.0706 272.685 87.0706Z" fill="#4D1717"/>
<path d="M272.685 112.369C270.69 112.369 269.071 110.752 269.071 108.756V97.9133C269.071 95.9176 270.69 94.2984 272.685 94.2984C274.681 94.2984 276.298 95.9176 276.298 97.9133V108.756C276.298 110.752 274.681 112.369 272.685 112.369Z" fill="#4D1717"/>
<path d="M265.458 94.2984H254.615C252.619 94.2984 251 92.6812 251 90.6855C251 88.6878 252.619 87.0706 254.615 87.0706H265.458C267.453 87.0706 269.071 88.6878 269.071 90.6855C269.071 92.6812 267.453 94.2984 265.458 94.2984Z" fill="#4D1717"/>
<path d="M290.756 94.2984H279.913C277.918 94.2984 276.298 92.6812 276.298 90.6855C276.298 88.6878 277.918 87.0706 279.913 87.0706H290.756C292.752 87.0706 294.371 88.6878 294.371 90.6855C294.371 92.6812 292.752 94.2984 290.756 94.2984Z" fill="#4D1717"/>
<path d="M206.139 22.3039C204.329 22.3039 202.536 21.8592 200.894 20.9803C198.27 19.5761 196.346 17.233 195.484 14.3833C194.622 11.5335 194.917 8.51831 196.324 5.8919C197.728 3.26755 200.071 1.34427 202.921 0.481898C208.796 -1.30489 215.037 2.03293 216.822 7.91651C218.605 13.8001 215.269 20.0352 209.388 21.82C208.318 22.1446 207.224 22.3039 206.139 22.3039ZM206.151 7.22992C205.775 7.22992 205.394 7.28576 205.016 7.3995C204.015 7.7035 203.192 8.37975 202.697 9.3021C202.203 10.2244 202.1 11.2853 202.404 12.2884C202.706 13.2914 203.382 14.1124 204.304 14.6066C205.227 15.0988 206.292 15.2064 207.291 14.9003C209.359 14.2757 210.531 12.0815 209.905 10.0135C209.39 8.32185 207.832 7.22992 206.151 7.22992Z" fill="#4D1717"/>
<path d="M256.147 200.296C250.001 200.296 245 195.295 245 189.149C245 183.003 250.001 178 256.147 178C262.293 178 267.296 183.003 267.296 189.149C267.296 195.295 262.293 200.296 256.147 200.296ZM256.147 185.23C253.986 185.23 252.228 186.986 252.228 189.149C252.228 191.31 253.986 193.068 256.147 193.068C258.31 193.068 260.066 191.31 260.066 189.149C260.066 186.986 258.308 185.23 256.147 185.23Z" fill="#4D1717"/>
<path d="M26.6139 78.8834C25.6895 78.8834 24.763 78.5298 24.0578 77.8246C22.6474 76.4121 22.6474 74.1248 24.0578 72.7144L34.7124 62.0578C36.1248 60.6474 38.4121 60.6474 39.8246 62.0578C41.235 63.4703 41.235 65.7575 39.8246 67.1679L29.1679 77.8246C28.4607 78.5298 27.5383 78.8834 26.6139 78.8834Z" fill="#4D1717"/>
<path d="M37.27 78.8834C36.3456 78.8834 35.4212 78.5298 34.7139 77.8246L24.0594 67.1679C22.6469 65.7575 22.6469 63.4703 24.0594 62.0578C25.4698 60.6474 27.757 60.6474 29.1695 62.0578L39.824 72.7144C41.2365 74.1248 41.2365 76.4121 39.824 77.8246C39.1188 78.5298 38.1944 78.8834 37.27 78.8834Z" fill="#4D1717"/>
<path d="M84.0546 32.0263C84.0546 35.3558 81.3558 38.0546 78.0263 38.0546C74.6988 38.0546 72 35.3558 72 32.0263C72 28.6988 74.6988 26 78.0263 26C81.3558 26 84.0546 28.6988 84.0546 32.0263Z" fill="#4D1717"/>
<path d="M289.172 147.954C289.172 151.283 286.475 153.982 283.146 153.982C279.816 153.982 277.117 151.283 277.117 147.954C277.117 144.626 279.816 141.927 283.146 141.927C286.475 141.927 289.172 144.626 289.172 147.954Z" fill="#4D1717"/>
</svg>
