<svg width="179" height="179" viewBox="0 0 179 179" fill="none" xmlns="http://www.w3.org/2000/svg">
<path d="M89.3382 3.98218C42.1993 3.98218 3.98442 42.5321 3.98442 90.0813L174.692 90.0813C174.692 42.5321 136.479 3.98218 89.3382 3.98218Z" fill="white"/>
<path d="M89.3404 4.57764e-05C138.599 4.57764e-05 178.674 40.41 178.674 90.0813C178.674 92.2833 176.892 94.0658 174.692 94.0658L3.98671 94.0658C1.78477 94.0658 0.0022583 92.2833 0.0022583 90.0813C0.0022583 40.41 40.0794 4.57764e-05 89.3404 4.57764e-05ZM170.612 86.0991C168.549 42.6644 132.882 7.96897 89.3404 7.96897C45.794 7.96897 10.1275 42.6644 8.06464 86.0991L170.612 86.0991Z" fill="#4C241D"/>
<path d="M59.906 169.527C69.0808 172.866 78.994 174.69 89.3382 174.69C136.479 174.69 174.692 136.81 174.692 90.0814L3.98442 90.0814C3.98442 114.439 14.3696 136.395 30.9867 151.831" fill="#F53E28"/>
<path d="M3.98669 86.0991L174.692 86.0991C176.892 86.0991 178.674 87.8839 178.674 90.0836C178.674 138.934 138.599 178.674 89.3404 178.674C78.7501 178.674 68.3878 176.855 58.5429 173.267C56.4754 172.515 55.4109 170.229 56.1631 168.161C56.9131 166.094 59.1994 165.025 61.2691 165.784C70.241 169.048 79.6824 170.705 89.3404 170.705C132.86 170.705 168.508 136.68 170.609 94.0658L8.06462 94.0658C9.07669 115.062 18.0896 134.414 33.6992 148.914C35.3108 150.411 35.402 152.93 33.9044 154.544C32.4091 156.156 29.8835 156.249 28.2764 154.749C10.3076 138.059 -4.57764e-05 114.487 -4.57764e-05 90.0813C0.00222778 87.8839 1.78476 86.0991 3.98669 86.0991Z" fill="#4C241D"/>
<path d="M42.4113 160.644C43.8269 161.578 45.272 162.47 46.7468 163.32L42.4113 160.644Z" fill="#F53E28"/>
<path d="M42.4159 156.662C43.1681 156.662 43.9294 156.874 44.6042 157.318C45.9559 158.209 47.3326 159.062 48.7368 159.869C50.6401 160.97 51.2943 163.406 50.1956 165.312C49.0946 167.218 46.6648 167.872 44.7523 166.771C43.2114 165.88 41.7001 164.947 40.2185 163.969C38.3813 162.759 37.8752 160.288 39.0834 158.453C39.8515 157.291 41.1212 156.662 42.4159 156.662Z" fill="#4C241D"/>
<path d="M62.0737 89.3359C62.0737 74.2779 74.2801 62.0715 89.3381 62.0715C104.396 62.0715 116.603 74.2779 116.603 89.3359C116.603 104.394 104.396 116.6 89.3381 116.6C74.2801 116.6 62.0737 104.394 62.0737 89.3359Z" fill="#EDEBDC"/>
<path d="M89.3403 58.087C106.571 58.087 120.587 72.1056 120.587 89.3359C120.587 106.568 106.571 120.587 89.3403 120.587C72.1077 120.587 58.0892 106.568 58.0892 89.3359C58.0892 72.1056 72.1077 58.087 89.3403 58.087ZM89.3403 112.618C102.178 112.618 112.62 102.174 112.62 89.3359C112.62 76.4981 102.178 66.0537 89.3403 66.0537C76.5002 66.0537 66.0558 76.4981 66.0558 89.3359C66.0558 102.174 76.5002 112.618 89.3403 112.618Z" fill="#4C241D"/>
<path d="M77.4692 89.3359C77.4692 82.7802 82.7825 77.4669 89.3382 77.4669C95.8939 77.4669 101.207 82.7802 101.207 89.3359C101.207 95.8916 95.8939 101.205 89.3382 101.205C82.7825 101.205 77.4692 95.8916 77.4692 89.3359Z" fill="#EDEBDC"/>
</svg>
