<svg width="203" height="110" viewBox="0 0 203 110" fill="none" xmlns="http://www.w3.org/2000/svg">
<path d="M184.5 81.5L177 85.5L183 91L184.5 96L194 91L198 88.5L191 84.5L188.5 78L184.5 81.5Z" fill="#F6F8B9"/>
<path d="M198.792 87.5618L193.376 82.9003L191.328 76.0521C190.881 74.5479 188.666 74.0756 187.644 75.2666L182.981 80.6838L176.135 82.7308C175.382 82.9564 174.813 83.5738 174.649 84.3409C174.485 85.109 174.753 85.9047 175.349 86.417L180.765 91.0776L182.813 97.9258C183.036 98.678 183.655 99.2473 184.422 99.4108C185.189 99.5744 185.986 99.3069 186.497 98.7113L191.16 93.2942L198.006 91.248C198.759 91.0238 199.328 90.4064 199.492 89.6381C199.655 88.871 199.388 88.0752 198.792 87.5618ZM189.327 89.3588C188.933 89.4763 188.582 89.7048 188.314 90.0155L185.803 92.9335L184.7 89.2449C184.583 88.852 184.355 88.5001 184.044 88.2322L181.126 85.722L184.814 84.6192C185.208 84.5017 185.559 84.2731 185.827 83.9622L188.338 81.044L189.441 84.7328C189.559 85.1257 189.786 85.4776 190.098 85.7458L193.014 88.2569L189.327 89.3588Z" fill="#4D1717"/>
<path d="M108.738 85.5222H106.352V83.1475C106.352 81.9615 105.392 81 104.205 81C103.018 81 102.057 81.9615 102.057 83.1475V85.5222H100.148C98.9605 85.5222 98 86.4838 98 87.6697C98 88.8557 98.9605 89.8173 100.148 89.8173H102.057V91.7376C102.057 92.9236 103.018 93.8851 104.205 93.8851C105.392 93.8851 106.352 92.9236 106.352 91.7376V89.8173H108.738C109.925 89.8173 110.885 88.8557 110.885 87.6697C110.885 86.4838 109.925 85.5222 108.738 85.5222Z" fill="#4D1717"/>
<path d="M41.4055 17.3689L43.1085 15.6659C43.9473 14.827 43.9473 13.468 43.1085 12.6291C42.2696 11.7903 40.9106 11.7903 40.0717 12.6291L38.3689 14.3322L36.6659 12.6291C35.827 11.7903 34.468 11.7903 33.6291 12.6291C32.7903 13.468 32.7903 14.827 33.6291 15.6659L35.3322 17.3689L33.6291 19.0717C32.7903 19.9106 32.7903 21.2696 33.6291 22.1085C34.0486 22.5279 34.598 22.7377 35.1476 22.7377C35.697 22.7377 36.2465 22.5279 36.6659 22.1085L38.3689 20.4055L40.0717 22.1085C40.4912 22.5279 41.0406 22.7377 41.5902 22.7377C42.1396 22.7377 42.689 22.5279 43.1085 22.1085C43.9473 21.2696 43.9473 19.9106 43.1085 19.0717L41.4055 17.3689Z" fill="#4D1717"/>
<path d="M168.405 28.3689L170.108 26.6659C170.947 25.827 170.947 24.468 170.108 23.6291C169.27 22.7903 167.911 22.7903 167.072 23.6291L165.369 25.3322L163.666 23.6291C162.827 22.7903 161.468 22.7903 160.629 23.6291C159.79 24.468 159.79 25.827 160.629 26.6659L162.332 28.3689L160.629 30.0717C159.79 30.9106 159.79 32.2696 160.629 33.1085C161.049 33.5279 161.598 33.7377 162.148 33.7377C162.697 33.7377 163.246 33.5279 163.666 33.1085L165.369 31.4055L167.072 33.1085C167.491 33.5279 168.041 33.7377 168.59 33.7377C169.14 33.7377 169.689 33.5279 170.108 33.1085C170.947 32.2696 170.947 30.9106 170.108 30.0717L168.405 28.3689Z" fill="#4D1717"/>
<path d="M97 12.5L89.5 16.5L95.5 22L103.5 31L108 23L115 16.5L108 12.5L101.5 4L97 12.5Z" fill="#F6F8B9"/>
<path d="M118.303 15.2153L109.118 10.2394L104.068 1.09251C103.312 -0.280241 101.046 -0.271251 100.301 1.10746L95.3231 10.2942L86.1782 15.3428C85.4899 15.7219 85.0647 16.4461 85.0678 17.2314C85.071 18.0168 85.5016 18.7375 86.1932 19.1114L95.3778 24.0883L100.429 33.2342C100.807 33.9217 101.532 34.3466 102.316 34.3435C103.101 34.3404 103.822 33.9097 104.195 33.2192L109.173 24.0335L118.318 18.9839C119.006 18.6048 119.431 17.8806 119.428 17.095C119.425 16.3099 118.994 15.5889 118.303 15.2153ZM106.546 20.5773C106.186 20.7758 105.892 21.0737 105.696 21.4342L102.29 27.7204L98.8343 21.4614C98.6358 21.1025 98.3389 20.807 97.9774 20.6113L91.6909 17.2053L97.9499 13.7504C98.3099 13.5519 98.6044 13.254 98.8 12.8935L102.206 6.60731L105.662 12.8663C105.86 13.2252 106.157 13.5208 106.519 13.7164L112.805 17.1215L106.546 20.5773Z" fill="#4D1717"/>
<path d="M16.5 81.5L9 92H14.5L26.5 100L27.5 92L35.5 81.5H27.5L17.5 74L16.5 81.5Z" fill="#F6F8B9"/>
<path d="M36.4604 79.646L26.123 78.1444L18.2267 71.3016C17.0432 70.274 14.9204 71.0639 14.6966 72.6151L13.1937 82.9551L6.35214 90.8488C5.83677 91.4419 5.68758 92.2683 5.96152 93.0045C6.2354 93.7406 6.88828 94.2685 7.66635 94.3808L18.0041 95.8834L25.9001 102.725C26.4921 103.24 27.3194 103.389 28.0547 103.115C28.7897 102.842 29.3186 102.188 29.4303 101.412L30.9336 91.0726L37.7748 83.178C38.2901 82.5846 38.4392 81.7581 38.1653 81.022C37.8912 80.2858 37.2381 79.758 36.4604 79.646ZM27.2754 88.7349C27.006 89.0452 26.8324 89.4267 26.7731 89.8325L25.745 96.9078L20.342 92.2253C20.0319 91.957 19.6512 91.7818 19.2445 91.7231L12.1692 90.695L16.8519 85.2928C17.1212 84.9823 17.2948 84.6007 17.3542 84.1953L18.3823 77.1199L23.7852 81.8024C24.0953 82.0705 24.476 82.2457 24.8828 82.3047L31.9578 83.332L27.2754 88.7349Z" fill="#4D1717"/>
</svg>
